<svg width="43" height="42" viewBox="0 0 43 42" fill="none" xmlns="http://www.w3.org/2000/svg">
<path d="M0 9V2C0 0.895431 0.89543 0 2 0H33.4529C38.4418 0 42.4788 4.0581 42.4528 9.04694L42.3224 34.0417C42.2995 38.4437 38.7245 42 34.3225 42H2C0.895431 42 0 41.1046 0 40V31.7938C0 30.6341 0.403121 29.5105 1.14035 28.6153L13.4 13.7286C13.7799 13.2673 14.3462 13 14.9438 13H24.2974C25.5692 13 26.2639 14.4833 25.4498 15.4603L12.5 31H29C30.6569 31 32 29.6569 32 28V14C32 12.3431 30.6569 11 29 11H2C0.895431 11 0 10.1046 0 9Z" fill="#008080"/>
</svg>
