<svg width="28" height="27" viewBox="0 0 28 27" fill="none" xmlns="http://www.w3.org/2000/svg">
<path d="M0 5.76V1.28C0 0.573076 0.573076 0 1.28 0H21.4099C24.6028 0 27.1865 2.59719 27.1698 5.79004L27.0864 21.7867C27.0717 24.6039 24.7837 26.88 21.9664 26.88H1.28C0.573076 26.88 0 26.3069 0 25.6V20.348C0 19.6058 0.257997 18.8867 0.729823 18.3138L8.57599 8.78629C8.81914 8.49104 9.18158 8.32 9.56406 8.32H15.5504C16.3643 8.32 16.8089 9.2693 16.2879 9.89458L8 19.84H18.56C19.6204 19.84 20.48 18.9804 20.48 17.92V8.96C20.48 7.89961 19.6204 7.04 18.56 7.04H1.28C0.573075 7.04 0 6.46692 0 5.76Z" fill="white"/>
</svg>
